<svg xmlns="http://www.w3.org/2000/svg" xmlns:xlink="http://www.w3.org/1999/xlink" viewBox="0 0 125.06 162.78"><defs><style>.cls-1{isolation:isolate;}.cls-2{mix-blend-mode:multiply;}.cls-3,.cls-47{fill:#fff;}.cls-3{opacity:0;}.cls-4{opacity:0.02;fill:url(#linear-gradient);}.cls-5{opacity:0.05;fill:url(#linear-gradient-2);}.cls-6{opacity:0.07;fill:url(#linear-gradient-3);}.cls-7{opacity:0.1;fill:url(#linear-gradient-4);}.cls-8{opacity:0.12;fill:url(#linear-gradient-5);}.cls-9{opacity:0.15;fill:url(#linear-gradient-6);}.cls-10{opacity:0.17;fill:url(#linear-gradient-7);}.cls-11{opacity:0.2;fill:url(#linear-gradient-8);}.cls-12{opacity:0.22;fill:url(#linear-gradient-9);}.cls-13{opacity:0.24;fill:url(#linear-gradient-10);}.cls-14{opacity:0.27;fill:url(#linear-gradient-11);}.cls-15{opacity:0.29;fill:url(#linear-gradient-12);}.cls-16{opacity:0.32;fill:url(#linear-gradient-13);}.cls-17{opacity:0.34;fill:url(#linear-gradient-14);}.cls-18{opacity:0.37;fill:url(#linear-gradient-15);}.cls-19{opacity:0.39;fill:url(#linear-gradient-16);}.cls-20{opacity:0.41;fill:url(#linear-gradient-17);}.cls-21{opacity:0.44;fill:url(#linear-gradient-18);}.cls-22{opacity:0.46;fill:url(#linear-gradient-19);}.cls-23{opacity:0.49;fill:url(#linear-gradient-20);}.cls-24{opacity:0.51;fill:url(#linear-gradient-21);}.cls-25{opacity:0.54;fill:url(#linear-gradient-22);}.cls-26{opacity:0.56;fill:url(#linear-gradient-23);}.cls-27{opacity:0.59;fill:url(#linear-gradient-24);}.cls-28{opacity:0.61;fill:url(#linear-gradient-25);}.cls-29{opacity:0.63;fill:url(#linear-gradient-26);}.cls-30{opacity:0.66;fill:url(#linear-gradient-27);}.cls-31{opacity:0.68;fill:url(#linear-gradient-28);}.cls-32{opacity:0.71;fill:url(#linear-gradient-29);}.cls-33{opacity:0.73;fill:url(#linear-gradient-30);}.cls-34{opacity:0.76;fill:url(#linear-gradient-31);}.cls-35{opacity:0.78;fill:url(#linear-gradient-32);}.cls-36{opacity:0.8;fill:url(#linear-gradient-33);}.cls-37{opacity:0.83;fill:url(#linear-gradient-34);}.cls-38{opacity:0.85;fill:url(#linear-gradient-35);}.cls-39{opacity:0.88;fill:url(#linear-gradient-36);}.cls-40{opacity:0.9;fill:url(#linear-gradient-37);}.cls-41{opacity:0.93;fill:url(#linear-gradient-38);}.cls-42{opacity:0.95;fill:url(#linear-gradient-39);}.cls-43{opacity:0.98;fill:url(#linear-gradient-40);}.cls-44{fill:url(#linear-gradient-41);}.cls-45{fill:url(#linear-gradient-42);}.cls-46{fill:#ebebec;}.cls-48{fill:none;stroke:#7b7d7f;stroke-miterlimit:10;}.cls-49{fill:url(#linear-gradient-43);}.cls-50{fill:#f8f7f8;}</style><linearGradient id="linear-gradient" x1="61.88" y1="158.14" x2="61.88" y2="17.49" gradientUnits="userSpaceOnUse"><stop offset="0" stop-color="#fcfdfd"/><stop offset="1" stop-color="#fcfdfd"/></linearGradient><linearGradient id="linear-gradient-2" x1="62.12" y1="157.2" x2="62.12" y2="17.96" gradientUnits="userSpaceOnUse"><stop offset="0" stop-color="#fafafa"/><stop offset="1" stop-color="#fafafa"/></linearGradient><linearGradient id="linear-gradient-3" x1="62.36" y1="156.25" x2="62.36" y2="18.43" gradientUnits="userSpaceOnUse"><stop offset="0" stop-color="#f8f8f8"/><stop offset="1" stop-color="#f8f8f8"/></linearGradient><linearGradient id="linear-gradient-4" x1="62.6" y1="155.31" x2="62.6" y2="18.9" gradientUnits="userSpaceOnUse"><stop offset="0" stop-color="#f6f6f6"/><stop offset="1" stop-color="#f6f6f6"/></linearGradient><linearGradient id="linear-gradient-5" x1="62.85" y1="154.37" x2="62.85" y2="19.36" gradientUnits="userSpaceOnUse"><stop offset="0" stop-color="#f4f5f5"/><stop offset="1" stop-color="#f4f5f5"/></linearGradient><linearGradient id="linear-gradient-6" x1="63.09" y1="153.43" x2="63.09" y2="19.83" gradientUnits="userSpaceOnUse"><stop offset="0" stop-color="#f2f3f3"/><stop offset="1" stop-color="#f2f3f3"/></linearGradient><linearGradient id="linear-gradient-7" x1="63.33" y1="152.48" x2="63.33" y2="20.3" gradientUnits="userSpaceOnUse"><stop offset="0" stop-color="#f1f1f1"/><stop offset="1" stop-color="#f1f1f1"/></linearGradient><linearGradient id="linear-gradient-8" x1="63.57" y1="151.54" x2="63.57" y2="20.77" gradientUnits="userSpaceOnUse"><stop offset="0" stop-color="#eff0f0"/><stop offset="1" stop-color="#eff0f0"/></linearGradient><linearGradient id="linear-gradient-9" x1="63.81" y1="150.6" x2="63.81" y2="21.24" gradientUnits="userSpaceOnUse"><stop offset="0" stop-color="#eeeeef"/><stop offset="1" stop-color="#eeeeef"/></linearGradient><linearGradient id="linear-gradient-10" x1="64.06" y1="149.66" x2="64.06" y2="21.71" gradientUnits="userSpaceOnUse"><stop offset="0" stop-color="#eceded"/><stop offset="1" stop-color="#eceded"/></linearGradient><linearGradient id="linear-gradient-11" x1="64.3" y1="148.71" x2="64.3" y2="22.18" gradientUnits="userSpaceOnUse"><stop offset="0" stop-color="#ebecec"/><stop offset="1" stop-color="#ebecec"/></linearGradient><linearGradient id="linear-gradient-12" x1="64.54" y1="147.77" x2="64.54" y2="22.65" gradientUnits="userSpaceOnUse"><stop offset="0" stop-color="#e9eaeb"/><stop offset="1" stop-color="#e9eaeb"/></linearGradient><linearGradient id="linear-gradient-13" x1="64.78" y1="146.83" x2="64.78" y2="23.12" gradientUnits="userSpaceOnUse"><stop offset="0" stop-color="#e8e9e9"/><stop offset="1" stop-color="#e8e9e9"/></linearGradient><linearGradient id="linear-gradient-14" x1="65.02" y1="145.89" x2="65.02" y2="23.59" gradientUnits="userSpaceOnUse"><stop offset="0" stop-color="#e6e8e8"/><stop offset="1" stop-color="#e6e8e8"/></linearGradient><linearGradient id="linear-gradient-15" x1="65.27" y1="144.94" x2="65.27" y2="24.06" gradientUnits="userSpaceOnUse"><stop offset="0" stop-color="#e5e6e7"/><stop offset="1" stop-color="#e5e6e7"/></linearGradient><linearGradient id="linear-gradient-16" x1="65.51" y1="144" x2="65.51" y2="24.53" gradientUnits="userSpaceOnUse"><stop offset="0" stop-color="#e3e5e6"/><stop offset="1" stop-color="#e3e5e6"/></linearGradient><linearGradient id="linear-gradient-17" x1="65.75" y1="143.06" x2="65.75" y2="25" gradientUnits="userSpaceOnUse"><stop offset="0" stop-color="#e2e4e4"/><stop offset="1" stop-color="#e2e4e4"/></linearGradient><linearGradient id="linear-gradient-18" x1="65.99" y1="142.12" x2="65.99" y2="25.46" gradientUnits="userSpaceOnUse"><stop offset="0" stop-color="#e1e3e3"/><stop offset="1" stop-color="#e1e3e3"/></linearGradient><linearGradient id="linear-gradient-19" x1="66.23" y1="141.17" x2="66.23" y2="25.93" gradientUnits="userSpaceOnUse"><stop offset="0" stop-color="#dfe1e2"/><stop offset="1" stop-color="#dfe1e2"/></linearGradient><linearGradient id="linear-gradient-20" x1="66.48" y1="140.23" x2="66.48" y2="26.4" gradientUnits="userSpaceOnUse"><stop offset="0" stop-color="#dee0e1"/><stop offset="1" stop-color="#dee0e1"/></linearGradient><linearGradient id="linear-gradient-21" x1="66.72" y1="139.29" x2="66.72" y2="26.87" gradientUnits="userSpaceOnUse"><stop offset="0" stop-color="#dcdfe0"/><stop offset="1" stop-color="#dcdfe0"/></linearGradient><linearGradient id="linear-gradient-22" x1="66.96" y1="138.35" x2="66.96" y2="27.34" gradientUnits="userSpaceOnUse"><stop offset="0" stop-color="#dbdedf"/><stop offset="1" stop-color="#dbdedf"/></linearGradient><linearGradient id="linear-gradient-23" x1="67.2" y1="137.4" x2="67.2" y2="27.81" gradientUnits="userSpaceOnUse"><stop offset="0" stop-color="#daddde"/><stop offset="1" stop-color="#daddde"/></linearGradient><linearGradient id="linear-gradient-24" x1="67.44" y1="136.46" x2="67.44" y2="28.28" gradientUnits="userSpaceOnUse"><stop offset="0" stop-color="#d8dbdc"/><stop offset="1" stop-color="#d8dbdc"/></linearGradient><linearGradient id="linear-gradient-25" x1="67.69" y1="135.52" x2="67.69" y2="28.75" gradientUnits="userSpaceOnUse"><stop offset="0" stop-color="#d7dadb"/><stop offset="1" stop-color="#d7dadb"/></linearGradient><linearGradient id="linear-gradient-26" x1="67.93" y1="134.58" x2="67.93" y2="29.22" gradientUnits="userSpaceOnUse"><stop offset="0" stop-color="#d6d9da"/><stop offset="1" stop-color="#d6d9da"/></linearGradient><linearGradient id="linear-gradient-27" x1="68.17" y1="133.63" x2="68.17" y2="29.69" gradientUnits="userSpaceOnUse"><stop offset="0" stop-color="#d4d8d9"/><stop offset="1" stop-color="#d4d8d9"/></linearGradient><linearGradient id="linear-gradient-28" x1="68.41" y1="132.69" x2="68.41" y2="30.16" gradientUnits="userSpaceOnUse"><stop offset="0" stop-color="#d3d7d8"/><stop offset="1" stop-color="#d3d7d8"/></linearGradient><linearGradient id="linear-gradient-29" x1="68.65" y1="131.75" x2="68.65" y2="30.63" gradientUnits="userSpaceOnUse"><stop offset="0" stop-color="#d2d6d7"/><stop offset="1" stop-color="#d2d6d7"/></linearGradient><linearGradient id="linear-gradient-30" x1="68.9" y1="130.81" x2="68.9" y2="31.09" gradientUnits="userSpaceOnUse"><stop offset="0" stop-color="#d1d5d6"/><stop offset="1" stop-color="#d1d5d6"/></linearGradient><linearGradient id="linear-gradient-31" x1="69.14" y1="129.86" x2="69.14" y2="31.56" gradientUnits="userSpaceOnUse"><stop offset="0" stop-color="#cfd4d5"/><stop offset="1" stop-color="#cfd4d5"/></linearGradient><linearGradient id="linear-gradient-32" x1="69.38" y1="128.92" x2="69.38" y2="32.03" gradientUnits="userSpaceOnUse"><stop offset="0" stop-color="#ced2d4"/><stop offset="1" stop-color="#ced2d4"/></linearGradient><linearGradient id="linear-gradient-33" x1="69.62" y1="127.98" x2="69.62" y2="32.5" gradientUnits="userSpaceOnUse"><stop offset="0" stop-color="#cdd1d3"/><stop offset="1" stop-color="#cdd1d3"/></linearGradient><linearGradient id="linear-gradient-34" x1="69.86" y1="127.04" x2="69.86" y2="32.97" gradientUnits="userSpaceOnUse"><stop offset="0" stop-color="#cbd0d2"/><stop offset="1" stop-color="#cbd0d2"/></linearGradient><linearGradient id="linear-gradient-35" x1="70.11" y1="126.09" x2="70.11" y2="33.44" gradientUnits="userSpaceOnUse"><stop offset="0" stop-color="#cacfd1"/><stop offset="1" stop-color="#cacfd1"/></linearGradient><linearGradient id="linear-gradient-36" x1="70.35" y1="125.15" x2="70.35" y2="33.91" gradientUnits="userSpaceOnUse"><stop offset="0" stop-color="#c9ced0"/><stop offset="1" stop-color="#c9ced0"/></linearGradient><linearGradient id="linear-gradient-37" x1="70.59" y1="124.21" x2="70.59" y2="34.38" gradientUnits="userSpaceOnUse"><stop offset="0" stop-color="#c8cdcf"/><stop offset="1" stop-color="#c8cdcf"/></linearGradient><linearGradient id="linear-gradient-38" x1="70.83" y1="123.27" x2="70.83" y2="34.85" gradientUnits="userSpaceOnUse"><stop offset="0" stop-color="#c6ccce"/><stop offset="1" stop-color="#c6ccce"/></linearGradient><linearGradient id="linear-gradient-39" x1="71.07" y1="122.32" x2="71.07" y2="35.32" gradientUnits="userSpaceOnUse"><stop offset="0" stop-color="#c5cbcd"/><stop offset="1" stop-color="#c5cbcd"/></linearGradient><linearGradient id="linear-gradient-40" x1="71.32" y1="121.38" x2="71.32" y2="35.79" gradientUnits="userSpaceOnUse"><stop offset="0" stop-color="#c4cacc"/><stop offset="1" stop-color="#c4cacc"/></linearGradient><linearGradient id="linear-gradient-41" x1="71.56" y1="120.44" x2="71.56" y2="36.26" gradientUnits="userSpaceOnUse"><stop offset="0" stop-color="#c3c9cb"/><stop offset="1" stop-color="#c3c9cb"/></linearGradient><linearGradient id="linear-gradient-42" x1="83.17" y1="114.33" x2="83.17" y2="2.07" gradientUnits="userSpaceOnUse"><stop offset="0" stop-color="#fbfbfb"/><stop offset="1" stop-color="#dde0e0"/></linearGradient><linearGradient id="linear-gradient-43" x1="104.61" y1="48.34" x2="61.74" y2="91.21" gradientUnits="userSpaceOnUse"><stop offset="0" stop-color="#4e8bbc"/><stop offset="1" stop-color="#2e659c"/></linearGradient></defs><g class="cls-1"><g id="Layer_2" data-name="Layer 2"><g id="Layer_1-2" data-name="Layer 1"><g class="cls-2"><path class="cls-3" d="M61.64,162.78A61.71,61.71,0,0,1,0,101.14V76a61.64,61.64,0,1,1,123.27,0v25.1A61.71,61.71,0,0,1,61.64,162.78Z"/><path class="cls-4" d="M61.88,14.9a61,61,0,0,1,58.89,45.45,61.94,61.94,0,0,1,2,15.68V100.9A60.9,60.9,0,1,1,1,100.9V76A61.94,61.94,0,0,1,3,60.35,61,61,0,0,1,61.88,14.9Z"/><path class="cls-5" d="M62.12,15.39a60.18,60.18,0,0,1,58.2,45.1,62.25,62.25,0,0,1,2,15.54v24.63A60.16,60.16,0,0,1,2,100.66V76a62.25,62.25,0,0,1,2-15.54A60.18,60.18,0,0,1,62.12,15.39Z"/><path class="cls-6" d="M62.36,15.89a59.42,59.42,0,0,1,57.52,44.75A62.93,62.93,0,0,1,121.79,76v24.38a59.43,59.43,0,1,1-118.85,0V76A62.45,62.45,0,0,1,4.85,60.64,59.4,59.4,0,0,1,62.36,15.89Z"/><path class="cls-7" d="M62.6,16.38a58.64,58.64,0,0,1,56.83,44.4A63.29,63.29,0,0,1,121.29,76v24.15a58.69,58.69,0,1,1-117.37,0V76A62.79,62.79,0,0,1,5.78,60.78,58.63,58.63,0,0,1,62.6,16.38Z"/><path class="cls-8" d="M62.85,16.88A57.86,57.86,0,0,1,119,60.93,63.56,63.56,0,0,1,120.8,76V99.93a57.95,57.95,0,0,1-115.9,0V76A63.56,63.56,0,0,1,6.71,60.93,57.85,57.85,0,0,1,62.85,16.88Z"/><path class="cls-9" d="M63.09,17.37a57.09,57.09,0,0,1,55.45,43.7A64,64,0,0,1,120.3,76V99.69a57.21,57.21,0,1,1-114.42,0V76A64.53,64.53,0,0,1,7.63,61.07,57.11,57.11,0,0,1,63.09,17.37Z"/><path class="cls-10" d="M63.33,17.87A56.32,56.32,0,0,1,118.1,61.21,65.08,65.08,0,0,1,119.8,76V99.45a56.48,56.48,0,0,1-112.95,0V76a65.08,65.08,0,0,1,1.71-14.8A56.32,56.32,0,0,1,63.33,17.87Z"/><path class="cls-11" d="M63.57,18.36a55.54,55.54,0,0,1,54.08,43A65.46,65.46,0,0,1,119.31,76V99.2a55.74,55.74,0,0,1-111.48,0V76A65.46,65.46,0,0,1,9.49,61.36,55.55,55.55,0,0,1,63.57,18.36Z"/><path class="cls-12" d="M63.81,18.86a54.79,54.79,0,0,1,53.4,42.64A66,66,0,0,1,118.81,76V99a55,55,0,0,1-110,0V76A66,66,0,0,1,10.42,61.5,54.78,54.78,0,0,1,63.81,18.86Z"/><path class="cls-13" d="M64.06,19.35a54,54,0,0,1,52.7,42.3A66.49,66.49,0,0,1,118.32,76V98.72a54.27,54.27,0,0,1-108.53,0V76a66.42,66.42,0,0,1,1.56-14.35A54,54,0,0,1,64.06,19.35Z"/><path class="cls-14" d="M64.3,19.85a53.25,53.25,0,0,1,52,41.94A67.83,67.83,0,0,1,117.82,76V98.48a53.53,53.53,0,0,1-107,0V76a67.76,67.76,0,0,1,1.51-14.21A53.25,53.25,0,0,1,64.3,19.85Z"/><path class="cls-15" d="M64.54,20.34a52.48,52.48,0,0,1,51.33,41.59A68.59,68.59,0,0,1,117.33,76V98.24a52.79,52.79,0,0,1-105.58,0V76a68.33,68.33,0,0,1,1.46-14A52.48,52.48,0,0,1,64.54,20.34Z"/><path class="cls-16" d="M64.78,20.84a51.74,51.74,0,0,1,50.65,41.24A69.89,69.89,0,0,1,116.83,76V98a52.05,52.05,0,1,1-104.1,0V76a69.15,69.15,0,0,1,1.41-13.91A51.72,51.72,0,0,1,64.78,20.84Z"/><path class="cls-17" d="M65,21.34a51,51,0,0,1,50,40.88c.89,3.33,1.36,10.16,1.36,13.77V97.75a51.32,51.32,0,1,1-102.63,0V76c0-3.61.47-10.44,1.36-13.77A51,51,0,0,1,65,21.34Z"/><path class="cls-18" d="M65.27,21.83a50.22,50.22,0,0,1,49.27,40.54c.85,3.2,1.3,10.14,1.3,13.61V97.51a50.58,50.58,0,1,1-101.15,0V76c0-3.47.45-10.41,1.31-13.61A50.21,50.21,0,0,1,65.27,21.83Z"/><path class="cls-19" d="M65.51,22.33a49.45,49.45,0,0,1,48.58,40.18c.82,3.08,1.26,10.13,1.26,13.47V97.27a49.84,49.84,0,0,1-99.68,0V76c0-3.34.43-10.39,1.25-13.47A49.46,49.46,0,0,1,65.51,22.33Z"/><path class="cls-20" d="M65.75,22.82a48.71,48.71,0,0,1,47.9,39.84c.78,3,1.2,10.11,1.2,13.32V97a49.1,49.1,0,0,1-98.2,0V76c0-3.21.42-10.37,1.2-13.32A48.7,48.7,0,0,1,65.75,22.82Z"/><path class="cls-21" d="M66,23.32A48,48,0,0,1,113.2,62.8c.76,2.84,1.16,10.1,1.16,13.17V96.78a48.37,48.37,0,1,1-96.73,0V76c0-3.07.4-10.33,1.15-13.17A48,48,0,0,1,66,23.32Z"/><path class="cls-22" d="M66.23,23.81a47.21,47.21,0,0,1,46.53,39.13c.72,2.72,1.1,10.09,1.1,13V96.54a47.63,47.63,0,1,1-95.25,0V76c0-2.94.38-10.31,1.1-13A47.2,47.2,0,0,1,66.23,23.81Z"/><path class="cls-23" d="M66.48,24.31a46.46,46.46,0,0,1,45.83,38.78c.69,2.59,1.06,10.07,1.06,12.88V96.3a46.9,46.9,0,0,1-93.79,0V76c0-2.8.37-10.28,1.06-12.87A46.46,46.46,0,0,1,66.48,24.31Z"/><path class="cls-24" d="M66.72,24.8a45.72,45.72,0,0,1,45.15,38.43c.65,2.47,1,10.06,1,12.73v20.1a46.16,46.16,0,0,1-92.31,0V76c0-2.67.35-10.26,1-12.73A45.71,45.71,0,0,1,66.72,24.8Z"/><path class="cls-25" d="M67,25.3a45,45,0,0,1,44.46,38.08c.62,2.34,1,10,1,12.58V95.82a45.42,45.42,0,0,1-90.84,0V76c0-2.54.34-10.24,1-12.58A45,45,0,0,1,67,25.3Z"/><path class="cls-26" d="M67.2,25.79A44.24,44.24,0,0,1,111,63.52c.59,2.22.9,10,.9,12.44V95.57a44.68,44.68,0,0,1-89.36,0V76c0-2.4.32-10.21.91-12.43A44.22,44.22,0,0,1,67.2,25.79Z"/><path class="cls-27" d="M67.44,26.29a43.49,43.49,0,0,1,43.09,37.37c.56,2.1.86,10,.86,12.29V95.33a43.95,43.95,0,0,1-87.89,0V76c0-2.27.3-10.19.86-12.29A43.48,43.48,0,0,1,67.44,26.29Z"/><path class="cls-28" d="M67.69,26.78a42.76,42.76,0,0,1,42.4,37c.52,2,.8,10,.8,12.14V95.09a43.21,43.21,0,0,1-86.41,0V76c0-2.14.28-10.17.81-12.14A42.75,42.75,0,0,1,67.69,26.78Z"/><path class="cls-29" d="M67.93,27.28A42,42,0,0,1,109.64,64c.49,1.85.76,10,.76,12v18.9a42.47,42.47,0,0,1-84.94,0V75.94c0-2,.26-10.14.75-12A42,42,0,0,1,67.93,27.28Z"/><path class="cls-30" d="M68.17,27.77a41.31,41.31,0,0,1,41,36.33c.46,1.72.7,10,.7,11.84V94.61a41.73,41.73,0,0,1-83.46,0V75.94c0-1.87.24-10.12.7-11.84A41.31,41.31,0,0,1,68.17,27.77Z"/><path class="cls-31" d="M68.41,28.27a40.56,40.56,0,0,1,40.34,36c.43,1.6.66,10,.66,11.7V94.36a41,41,0,1,1-82,0V75.94c0-1.74.23-10.1.65-11.7A40.56,40.56,0,0,1,68.41,28.27Z"/><path class="cls-32" d="M68.65,28.76a39.85,39.85,0,0,1,39.66,35.63c.39,1.47.6,9.94.6,11.54V94.12a40.26,40.26,0,1,1-80.51,0V75.93c0-1.6.21-10.07.6-11.54A39.85,39.85,0,0,1,68.65,28.76Z"/><path class="cls-33" d="M68.9,29.26a39.12,39.12,0,0,1,39,35.27c.36,1.36.55,9.93.55,11.4V93.88a39.52,39.52,0,1,1-79,0V75.93c0-1.47.19-10,.55-11.4A39.12,39.12,0,0,1,68.9,29.26Z"/><path class="cls-34" d="M69.14,29.75a38.41,38.41,0,0,1,38.28,34.92c.32,1.24.5,9.92.5,11.26V93.64a38.78,38.78,0,0,1-77.56,0V75.92c0-1.33.17-10,.5-11.25A38.41,38.41,0,0,1,69.14,29.75Z"/><path class="cls-35" d="M69.38,30.25A37.69,37.69,0,0,1,107,64.82c.3,1.11.45,9.9.45,11.1V93.4a38,38,0,0,1-76.08,0V75.92c0-1.2.15-10,.45-11.1A37.69,37.69,0,0,1,69.38,30.25Z"/><path class="cls-36" d="M69.62,30.74A37,37,0,0,1,106.53,65c.26,1,.4,9.89.4,11V93.15a37.31,37.31,0,0,1-74.62,0V75.92c0-1.07.14-10,.41-11A37,37,0,0,1,69.62,30.74Z"/><path class="cls-37" d="M69.86,31.24a36.26,36.26,0,0,1,36.22,33.87c.23.86.35,9.87.35,10.81v17a36.57,36.57,0,0,1-73.14,0v-17c0-.93.13-9.94.36-10.8A36.26,36.26,0,0,1,69.86,31.24Z"/><path class="cls-38" d="M70.11,31.73a35.57,35.57,0,0,1,35.53,33.52c.19.74.3,9.86.3,10.66V92.67a35.84,35.84,0,0,1-71.67,0V75.91c0-.8.11-9.92.3-10.66A35.57,35.57,0,0,1,70.11,31.73Z"/><path class="cls-39" d="M70.35,32.23a34.85,34.85,0,0,1,34.84,33.16c.17.62.25,9.85.25,10.52V92.43a35.1,35.1,0,0,1-70.19,0V75.91c0-.67.09-9.9.25-10.52A34.87,34.87,0,0,1,70.35,32.23Z"/><path class="cls-40" d="M70.59,32.73a34.16,34.16,0,0,1,34.16,32.81c.13.49.2,9.83.2,10.37V92.19a34.36,34.36,0,0,1-68.72,0V75.9c0-.53.07-9.87.2-10.36A34.16,34.16,0,0,1,70.59,32.73Z"/><path class="cls-41" d="M70.83,33.22A33.46,33.46,0,0,1,104.3,65.68c.1.37.15,9.82.15,10.22v16a33.62,33.62,0,0,1-67.24,0v-16c0-.4,0-9.85.15-10.22A33.47,33.47,0,0,1,70.83,33.22Z"/><path class="cls-42" d="M71.07,33.72a32.77,32.77,0,0,1,32.79,32.11c.06.24.1,9.8.1,10.07V91.7a32.89,32.89,0,1,1-65.77,0V75.9c0-.27,0-9.83.1-10.07A32.77,32.77,0,0,1,71.07,33.72Z"/><path class="cls-43" d="M71.32,34.21A32.08,32.08,0,0,1,103.41,66c0,.12,0,9.79,0,9.93V91.46a32.15,32.15,0,1,1-64.29,0V75.89c0-.13,0-9.8,0-9.92A32.09,32.09,0,0,1,71.32,34.21Z"/><path class="cls-44" d="M71.56,34.71h0A31.41,31.41,0,0,0,40.15,66.12v25.1a31.41,31.41,0,0,0,31.41,31.41h0A31.41,31.41,0,0,0,103,91.22V66.12A31.41,31.41,0,0,0,71.56,34.71Z"/></g><rect class="cls-45" x="41.28" width="83.77" height="117.25" rx="41.89"/><path class="cls-46" d="M83.17,115.9h0A41.89,41.89,0,0,1,41.28,74v1.34a41.9,41.9,0,0,0,41.89,41.89h0a41.9,41.9,0,0,0,41.89-41.89V74A41.89,41.89,0,0,1,83.17,115.9Z"/><path class="cls-47" d="M83.17,0h0A41.89,41.89,0,0,0,41.28,41.89v1.34A41.9,41.9,0,0,1,83.17,1.34h0a41.9,41.9,0,0,1,41.89,41.89V41.89A41.89,41.89,0,0,0,83.17,0Z"/><path class="cls-48" d="M75.34,27.29s6.5,6.94,15.71,0a16.58,16.58,0,0,1,6.79,2.07V34S93,36.28,83.05,36.59A38.35,38.35,0,0,1,68.41,34v-4.6A15.13,15.13,0,0,1,75.34,27.29Z"/><path class="cls-48" d="M68.41,37.11l-.14,4.57A38.17,38.17,0,0,0,83.12,44.4a39.06,39.06,0,0,0,14.72-2.72V37.11S83.14,42.22,68.41,37.11Z"/><ellipse class="cls-48" cx="83.05" cy="20.21" rx="7.19" ry="5.95"/><path class="cls-48" d="M68.41,45.13l-.14,4.57a38.17,38.17,0,0,0,14.85,2.72A38.86,38.86,0,0,0,97.84,49.7V45.13S83.14,50.24,68.41,45.13Z"/><rect class="cls-49" x="47.85" y="62.23" width="70.65" height="15.09"/><path class="cls-50" d="M55.72,72.46A1.48,1.48,0,0,0,56.78,72a1.83,1.83,0,0,0,.29-1.12V65.77h3.19c1.45,0,2.18.81,2.18,2.42V73h-1V68.15a1.64,1.64,0,0,0-.37-1.21,1.38,1.38,0,0,0-1-.37h-2v4.22a2.45,2.45,0,0,1-.53,1.71,2.6,2.6,0,0,1-1.72.67Z"/><path class="cls-50" d="M64.31,67.3l-.17-1.53h1l.18,1.53V73h-1Z"/><path class="cls-50" d="M72.07,66.43a2.9,2.9,0,0,1,.57,1.94V73h-1V68.34A2.1,2.1,0,0,0,71.29,67a1.27,1.27,0,0,0-1.05-.45H68V73H67V65.77h3.43A2,2,0,0,1,72.07,66.43Z"/><path class="cls-50" d="M74.54,67.3l-.17-1.53h1l.18,1.53V73h-1Z"/><path class="cls-50" d="M79.3,72.2a3.38,3.38,0,0,0,1.16-.33,1.89,1.89,0,0,0,.78-.86,4.85,4.85,0,0,0,.39-1.71l.22-2.73H77.17v-.8h5.74l0,.72-.2,2.61a4.5,4.5,0,0,1-1,2.86,3.09,3.09,0,0,1-2.31,1Zm-2.11-2.9.15-.89h.85v7.18h-1Z"/><path class="cls-50" d="M89.17,65.77v.85L86.66,73h-1l2.51-6.42h-4v-2.9h.92v2.1Z"/><path class="cls-50" d="M95.23,72.2a3.32,3.32,0,0,0,1.15-.33,1.89,1.89,0,0,0,.78-.86,4.45,4.45,0,0,0,.39-1.71l.22-2.73H93.09v-.8h5.75l0,.72-.21,2.61a4.56,4.56,0,0,1-1,2.86,3.13,3.13,0,0,1-2.31,1Zm-2.11-2.9.14-.89h.86v7.18h-1Z"/><path class="cls-50" d="M100.52,67.3l-.17-1.53h1l.18,1.53v1.93l0,.82-1,.21Z"/><path class="cls-50" d="M102.53,72.46a1.46,1.46,0,0,0,1.06-.44,1.76,1.76,0,0,0,.29-1.12V65.77h3.19c1.45,0,2.18.81,2.18,2.42V73h-1V68.15a1.68,1.68,0,0,0-.36-1.21,1.39,1.39,0,0,0-1-.37h-2v4.22a2.4,2.4,0,0,1-.53,1.71,2.57,2.57,0,0,1-1.71.67Z"/></g></g></g></svg>