<svg xmlns="http://www.w3.org/2000/svg" xmlns:xlink="http://www.w3.org/1999/xlink" viewBox="0 0 125.06 162.78"><defs><style>.cls-1{isolation:isolate;}.cls-2{mix-blend-mode:multiply;}.cls-3,.cls-47{fill:#fff;}.cls-3{opacity:0;}.cls-4{opacity:0.02;fill:url(#linear-gradient);}.cls-5{opacity:0.05;fill:url(#linear-gradient-2);}.cls-6{opacity:0.07;fill:url(#linear-gradient-3);}.cls-7{opacity:0.1;fill:url(#linear-gradient-4);}.cls-8{opacity:0.12;fill:url(#linear-gradient-5);}.cls-9{opacity:0.15;fill:url(#linear-gradient-6);}.cls-10{opacity:0.17;fill:url(#linear-gradient-7);}.cls-11{opacity:0.2;fill:url(#linear-gradient-8);}.cls-12{opacity:0.22;fill:url(#linear-gradient-9);}.cls-13{opacity:0.24;fill:url(#linear-gradient-10);}.cls-14{opacity:0.27;fill:url(#linear-gradient-11);}.cls-15{opacity:0.29;fill:url(#linear-gradient-12);}.cls-16{opacity:0.32;fill:url(#linear-gradient-13);}.cls-17{opacity:0.34;fill:url(#linear-gradient-14);}.cls-18{opacity:0.37;fill:url(#linear-gradient-15);}.cls-19{opacity:0.39;fill:url(#linear-gradient-16);}.cls-20{opacity:0.41;fill:url(#linear-gradient-17);}.cls-21{opacity:0.44;fill:url(#linear-gradient-18);}.cls-22{opacity:0.46;fill:url(#linear-gradient-19);}.cls-23{opacity:0.49;fill:url(#linear-gradient-20);}.cls-24{opacity:0.51;fill:url(#linear-gradient-21);}.cls-25{opacity:0.54;fill:url(#linear-gradient-22);}.cls-26{opacity:0.56;fill:url(#linear-gradient-23);}.cls-27{opacity:0.59;fill:url(#linear-gradient-24);}.cls-28{opacity:0.61;fill:url(#linear-gradient-25);}.cls-29{opacity:0.63;fill:url(#linear-gradient-26);}.cls-30{opacity:0.66;fill:url(#linear-gradient-27);}.cls-31{opacity:0.68;fill:url(#linear-gradient-28);}.cls-32{opacity:0.71;fill:url(#linear-gradient-29);}.cls-33{opacity:0.73;fill:url(#linear-gradient-30);}.cls-34{opacity:0.76;fill:url(#linear-gradient-31);}.cls-35{opacity:0.78;fill:url(#linear-gradient-32);}.cls-36{opacity:0.8;fill:url(#linear-gradient-33);}.cls-37{opacity:0.83;fill:url(#linear-gradient-34);}.cls-38{opacity:0.85;fill:url(#linear-gradient-35);}.cls-39{opacity:0.88;fill:url(#linear-gradient-36);}.cls-40{opacity:0.9;fill:url(#linear-gradient-37);}.cls-41{opacity:0.93;fill:url(#linear-gradient-38);}.cls-42{opacity:0.95;fill:url(#linear-gradient-39);}.cls-43{opacity:0.98;fill:url(#linear-gradient-40);}.cls-44{fill:url(#linear-gradient-41);}.cls-45{fill:url(#linear-gradient-42);}.cls-46{fill:#ebebec;}.cls-48{fill:url(#linear-gradient-43);}.cls-49{fill:#f8f7f8;}.cls-50{fill:#7b7d7f;}</style><linearGradient id="linear-gradient" x1="61.88" y1="158.14" x2="61.88" y2="17.49" gradientUnits="userSpaceOnUse"><stop offset="0" stop-color="#fcfdfd"/><stop offset="1" stop-color="#fcfdfd"/></linearGradient><linearGradient id="linear-gradient-2" x1="62.12" y1="157.2" x2="62.12" y2="17.96" gradientUnits="userSpaceOnUse"><stop offset="0" stop-color="#fafafa"/><stop offset="1" stop-color="#fafafa"/></linearGradient><linearGradient id="linear-gradient-3" x1="62.36" y1="156.25" x2="62.36" y2="18.43" gradientUnits="userSpaceOnUse"><stop offset="0" stop-color="#f8f8f8"/><stop offset="1" stop-color="#f8f8f8"/></linearGradient><linearGradient id="linear-gradient-4" x1="62.6" y1="155.31" x2="62.6" y2="18.9" gradientUnits="userSpaceOnUse"><stop offset="0" stop-color="#f6f6f6"/><stop offset="1" stop-color="#f6f6f6"/></linearGradient><linearGradient id="linear-gradient-5" x1="62.85" y1="154.37" x2="62.85" y2="19.36" gradientUnits="userSpaceOnUse"><stop offset="0" stop-color="#f4f5f5"/><stop offset="1" stop-color="#f4f5f5"/></linearGradient><linearGradient id="linear-gradient-6" x1="63.09" y1="153.43" x2="63.09" y2="19.83" gradientUnits="userSpaceOnUse"><stop offset="0" stop-color="#f2f3f3"/><stop offset="1" stop-color="#f2f3f3"/></linearGradient><linearGradient id="linear-gradient-7" x1="63.33" y1="152.48" x2="63.33" y2="20.3" gradientUnits="userSpaceOnUse"><stop offset="0" stop-color="#f1f1f1"/><stop offset="1" stop-color="#f1f1f1"/></linearGradient><linearGradient id="linear-gradient-8" x1="63.57" y1="151.54" x2="63.57" y2="20.77" gradientUnits="userSpaceOnUse"><stop offset="0" stop-color="#eff0f0"/><stop offset="1" stop-color="#eff0f0"/></linearGradient><linearGradient id="linear-gradient-9" x1="63.81" y1="150.6" x2="63.81" y2="21.24" gradientUnits="userSpaceOnUse"><stop offset="0" stop-color="#eeeeef"/><stop offset="1" stop-color="#eeeeef"/></linearGradient><linearGradient id="linear-gradient-10" x1="64.06" y1="149.66" x2="64.06" y2="21.71" gradientUnits="userSpaceOnUse"><stop offset="0" stop-color="#eceded"/><stop offset="1" stop-color="#eceded"/></linearGradient><linearGradient id="linear-gradient-11" x1="64.3" y1="148.71" x2="64.3" y2="22.18" gradientUnits="userSpaceOnUse"><stop offset="0" stop-color="#ebecec"/><stop offset="1" stop-color="#ebecec"/></linearGradient><linearGradient id="linear-gradient-12" x1="64.54" y1="147.77" x2="64.54" y2="22.65" gradientUnits="userSpaceOnUse"><stop offset="0" stop-color="#e9eaeb"/><stop offset="1" stop-color="#e9eaeb"/></linearGradient><linearGradient id="linear-gradient-13" x1="64.78" y1="146.83" x2="64.78" y2="23.12" gradientUnits="userSpaceOnUse"><stop offset="0" stop-color="#e8e9e9"/><stop offset="1" stop-color="#e8e9e9"/></linearGradient><linearGradient id="linear-gradient-14" x1="65.02" y1="145.89" x2="65.02" y2="23.59" gradientUnits="userSpaceOnUse"><stop offset="0" stop-color="#e6e8e8"/><stop offset="1" stop-color="#e6e8e8"/></linearGradient><linearGradient id="linear-gradient-15" x1="65.27" y1="144.94" x2="65.27" y2="24.06" gradientUnits="userSpaceOnUse"><stop offset="0" stop-color="#e5e6e7"/><stop offset="1" stop-color="#e5e6e7"/></linearGradient><linearGradient id="linear-gradient-16" x1="65.51" y1="144" x2="65.51" y2="24.53" gradientUnits="userSpaceOnUse"><stop offset="0" stop-color="#e3e5e6"/><stop offset="1" stop-color="#e3e5e6"/></linearGradient><linearGradient id="linear-gradient-17" x1="65.75" y1="143.06" x2="65.75" y2="25" gradientUnits="userSpaceOnUse"><stop offset="0" stop-color="#e2e4e4"/><stop offset="1" stop-color="#e2e4e4"/></linearGradient><linearGradient id="linear-gradient-18" x1="65.99" y1="142.12" x2="65.99" y2="25.46" gradientUnits="userSpaceOnUse"><stop offset="0" stop-color="#e1e3e3"/><stop offset="1" stop-color="#e1e3e3"/></linearGradient><linearGradient id="linear-gradient-19" x1="66.23" y1="141.17" x2="66.23" y2="25.93" gradientUnits="userSpaceOnUse"><stop offset="0" stop-color="#dfe1e2"/><stop offset="1" stop-color="#dfe1e2"/></linearGradient><linearGradient id="linear-gradient-20" x1="66.48" y1="140.23" x2="66.48" y2="26.4" gradientUnits="userSpaceOnUse"><stop offset="0" stop-color="#dee0e1"/><stop offset="1" stop-color="#dee0e1"/></linearGradient><linearGradient id="linear-gradient-21" x1="66.72" y1="139.29" x2="66.72" y2="26.87" gradientUnits="userSpaceOnUse"><stop offset="0" stop-color="#dcdfe0"/><stop offset="1" stop-color="#dcdfe0"/></linearGradient><linearGradient id="linear-gradient-22" x1="66.96" y1="138.35" x2="66.96" y2="27.34" gradientUnits="userSpaceOnUse"><stop offset="0" stop-color="#dbdedf"/><stop offset="1" stop-color="#dbdedf"/></linearGradient><linearGradient id="linear-gradient-23" x1="67.2" y1="137.4" x2="67.2" y2="27.81" gradientUnits="userSpaceOnUse"><stop offset="0" stop-color="#daddde"/><stop offset="1" stop-color="#daddde"/></linearGradient><linearGradient id="linear-gradient-24" x1="67.44" y1="136.46" x2="67.44" y2="28.28" gradientUnits="userSpaceOnUse"><stop offset="0" stop-color="#d8dbdc"/><stop offset="1" stop-color="#d8dbdc"/></linearGradient><linearGradient id="linear-gradient-25" x1="67.69" y1="135.52" x2="67.69" y2="28.75" gradientUnits="userSpaceOnUse"><stop offset="0" stop-color="#d7dadb"/><stop offset="1" stop-color="#d7dadb"/></linearGradient><linearGradient id="linear-gradient-26" x1="67.93" y1="134.58" x2="67.93" y2="29.22" gradientUnits="userSpaceOnUse"><stop offset="0" stop-color="#d6d9da"/><stop offset="1" stop-color="#d6d9da"/></linearGradient><linearGradient id="linear-gradient-27" x1="68.17" y1="133.63" x2="68.17" y2="29.69" gradientUnits="userSpaceOnUse"><stop offset="0" stop-color="#d4d8d9"/><stop offset="1" stop-color="#d4d8d9"/></linearGradient><linearGradient id="linear-gradient-28" x1="68.41" y1="132.69" x2="68.41" y2="30.16" gradientUnits="userSpaceOnUse"><stop offset="0" stop-color="#d3d7d8"/><stop offset="1" stop-color="#d3d7d8"/></linearGradient><linearGradient id="linear-gradient-29" x1="68.65" y1="131.75" x2="68.65" y2="30.63" gradientUnits="userSpaceOnUse"><stop offset="0" stop-color="#d2d6d7"/><stop offset="1" stop-color="#d2d6d7"/></linearGradient><linearGradient id="linear-gradient-30" x1="68.9" y1="130.81" x2="68.9" y2="31.09" gradientUnits="userSpaceOnUse"><stop offset="0" stop-color="#d1d5d6"/><stop offset="1" stop-color="#d1d5d6"/></linearGradient><linearGradient id="linear-gradient-31" x1="69.14" y1="129.86" x2="69.14" y2="31.56" gradientUnits="userSpaceOnUse"><stop offset="0" stop-color="#cfd4d5"/><stop offset="1" stop-color="#cfd4d5"/></linearGradient><linearGradient id="linear-gradient-32" x1="69.38" y1="128.92" x2="69.38" y2="32.03" gradientUnits="userSpaceOnUse"><stop offset="0" stop-color="#ced2d4"/><stop offset="1" stop-color="#ced2d4"/></linearGradient><linearGradient id="linear-gradient-33" x1="69.62" y1="127.98" x2="69.62" y2="32.5" gradientUnits="userSpaceOnUse"><stop offset="0" stop-color="#cdd1d3"/><stop offset="1" stop-color="#cdd1d3"/></linearGradient><linearGradient id="linear-gradient-34" x1="69.86" y1="127.04" x2="69.86" y2="32.97" gradientUnits="userSpaceOnUse"><stop offset="0" stop-color="#cbd0d2"/><stop offset="1" stop-color="#cbd0d2"/></linearGradient><linearGradient id="linear-gradient-35" x1="70.11" y1="126.09" x2="70.11" y2="33.44" gradientUnits="userSpaceOnUse"><stop offset="0" stop-color="#cacfd1"/><stop offset="1" stop-color="#cacfd1"/></linearGradient><linearGradient id="linear-gradient-36" x1="70.35" y1="125.15" x2="70.35" y2="33.91" gradientUnits="userSpaceOnUse"><stop offset="0" stop-color="#c9ced0"/><stop offset="1" stop-color="#c9ced0"/></linearGradient><linearGradient id="linear-gradient-37" x1="70.59" y1="124.21" x2="70.59" y2="34.38" gradientUnits="userSpaceOnUse"><stop offset="0" stop-color="#c8cdcf"/><stop offset="1" stop-color="#c8cdcf"/></linearGradient><linearGradient id="linear-gradient-38" x1="70.83" y1="123.27" x2="70.83" y2="34.85" gradientUnits="userSpaceOnUse"><stop offset="0" stop-color="#c6ccce"/><stop offset="1" stop-color="#c6ccce"/></linearGradient><linearGradient id="linear-gradient-39" x1="71.07" y1="122.32" x2="71.07" y2="35.32" gradientUnits="userSpaceOnUse"><stop offset="0" stop-color="#c5cbcd"/><stop offset="1" stop-color="#c5cbcd"/></linearGradient><linearGradient id="linear-gradient-40" x1="71.32" y1="121.38" x2="71.32" y2="35.79" gradientUnits="userSpaceOnUse"><stop offset="0" stop-color="#c4cacc"/><stop offset="1" stop-color="#c4cacc"/></linearGradient><linearGradient id="linear-gradient-41" x1="71.56" y1="120.44" x2="71.56" y2="36.26" gradientUnits="userSpaceOnUse"><stop offset="0" stop-color="#c3c9cb"/><stop offset="1" stop-color="#c3c9cb"/></linearGradient><linearGradient id="linear-gradient-42" x1="83.17" y1="114.33" x2="83.17" y2="2.07" gradientUnits="userSpaceOnUse"><stop offset="0" stop-color="#fbfbfb"/><stop offset="1" stop-color="#dde0e0"/></linearGradient><linearGradient id="linear-gradient-43" x1="104.44" y1="48.14" x2="61.57" y2="91.01" gradientUnits="userSpaceOnUse"><stop offset="0" stop-color="#84c66c"/><stop offset="1" stop-color="#509e51"/></linearGradient></defs><g class="cls-1"><g id="Layer_2" data-name="Layer 2"><g id="Layer_1-2" data-name="Layer 1"><g class="cls-2"><path class="cls-3" d="M61.64,162.78A61.71,61.71,0,0,1,0,101.14V76a61.64,61.64,0,1,1,123.27,0v25.1A61.71,61.71,0,0,1,61.64,162.78Z"/><path class="cls-4" d="M61.88,14.9a61,61,0,0,1,60.9,60.9v24.86a62,62,0,0,1-2,15.69A61,61,0,0,1,61.88,161.8h0A60.71,60.71,0,0,1,9.23,131.28a62.07,62.07,0,0,1-8.25-31c0-.09,0-24.66,0-24.74A60.91,60.91,0,0,1,61.88,14.9Z"/><path class="cls-5" d="M62.12,15.39a60.23,60.23,0,0,1,60.16,60.16v24.63a62.25,62.25,0,0,1-2,15.54,60.18,60.18,0,0,1-58.2,45.1h0A59.76,59.76,0,0,1,10,130.27,62.83,62.83,0,0,1,2,99.43c0-.17,0-24.21.08-24.36A60.14,60.14,0,0,1,62.12,15.39Z"/><path class="cls-6" d="M62.36,15.89a59.49,59.49,0,0,1,59.43,59.42V99.7a63,63,0,0,1-1.91,15.39,59.42,59.42,0,0,1-57.52,44.75h0a58.78,58.78,0,0,1-51.58-30.57c-5-8.47-7.84-20.17-7.84-30.69,0-.26,0-23.77.12-24A59.35,59.35,0,0,1,62.36,15.89Z"/><path class="cls-7" d="M62.6,16.38a58.75,58.75,0,0,1,58.69,58.69V99.22a63.23,63.23,0,0,1-1.86,15.24,58.64,58.64,0,0,1-56.83,44.4h0a57.85,57.85,0,0,1-51-30.59C6.7,120,3.92,108,3.92,97.72c0-.34.05-23.32.16-23.62A58.57,58.57,0,0,1,62.6,16.38Z"/><path class="cls-8" d="M62.85,16.88a58,58,0,0,1,58,58V98.74A63.62,63.62,0,0,1,119,113.83a57.88,57.88,0,0,1-56.14,44.05h0a56.93,56.93,0,0,1-50.53-30.61c-4.72-8-7.42-20.44-7.42-30.4,0-.43.07-22.88.19-23.26A57.8,57.8,0,0,1,62.85,16.88Z"/><path class="cls-9" d="M63.09,17.37A57.28,57.28,0,0,1,120.3,74.59V98.26a63.91,63.91,0,0,1-1.76,14.94,57.08,57.08,0,0,1-55.45,43.7h0a56,56,0,0,1-50-30.63C8.51,118.46,5.88,105.7,5.88,96c0-.51.08-22.43.23-22.89A57,57,0,0,1,63.09,17.37Z"/><path class="cls-10" d="M63.33,17.87A56.53,56.53,0,0,1,119.8,74.34V97.78a65.08,65.08,0,0,1-1.7,14.8,56.32,56.32,0,0,1-54.77,43.34h0a55.13,55.13,0,0,1-49.46-30.65c-4.46-7.59-7-20.7-7-30.11,0-.6.1-22,.28-22.52A56.24,56.24,0,0,1,63.33,17.87Z"/><path class="cls-11" d="M63.57,18.36A55.8,55.8,0,0,1,119.31,74.1V97.3A65.46,65.46,0,0,1,117.65,112a55.55,55.55,0,0,1-54.08,43h0a54.24,54.24,0,0,1-48.93-30.67c-4.32-7.36-6.81-20.83-6.81-30,0-.69.12-21.54.32-22.16A55.46,55.46,0,0,1,63.57,18.36Z"/><path class="cls-12" d="M63.81,18.86a55.05,55.05,0,0,1,55,55v23a66,66,0,0,1-1.6,14.5A54.79,54.79,0,0,1,63.81,154h0a53.37,53.37,0,0,1-48.4-30.7c-4.19-7.13-6.6-21-6.6-29.81,0-.76.13-21.09.36-21.78A54.69,54.69,0,0,1,63.81,18.86Z"/><path class="cls-13" d="M64.06,19.35a54.32,54.32,0,0,1,54.26,54.27V96.34a66.49,66.49,0,0,1-1.56,14.35A54,54,0,0,1,64.06,153h0a52.48,52.48,0,0,1-47.87-30.72c-4.07-6.91-6.4-21.08-6.4-29.66,0-.85.14-20.65.4-21.42A53.92,53.92,0,0,1,64.06,19.35Z"/><path class="cls-14" d="M64.3,19.85a53.57,53.57,0,0,1,53.52,53.53V95.86a67.66,67.66,0,0,1-1.5,14.2A53.25,53.25,0,0,1,64.3,152h0A51.63,51.63,0,0,1,17,121.26c-3.93-6.69-6.19-21.21-6.19-29.52,0-.93.15-20.2.44-21A53.13,53.13,0,0,1,64.3,19.85Z"/><path class="cls-15" d="M64.54,20.34a52.84,52.84,0,0,1,52.79,52.79V95.38a68.5,68.5,0,0,1-1.46,14.06A52.48,52.48,0,0,1,64.54,151h0a50.81,50.81,0,0,1-46.81-30.77c-3.8-6.47-6-21.34-6-29.37,0-1,.17-19.76.48-20.68A52.37,52.37,0,0,1,64.54,20.34Z"/><path class="cls-16" d="M64.78,20.84a52.1,52.1,0,0,1,52.05,52.05v22a70,70,0,0,1-1.4,13.91,51.75,51.75,0,0,1-50.65,41.24h0a50,50,0,0,1-46.27-30.79C14.84,113,12.73,97.79,12.73,90c0-1.1.18-19.31.51-20.31A51.6,51.6,0,0,1,64.78,20.84Z"/><path class="cls-17" d="M65,21.34a51.36,51.36,0,0,1,51.32,51.31V94.41c0,3.61-.47,10.44-1.36,13.77a51,51,0,0,1-50,40.89h0a49.15,49.15,0,0,1-45.74-30.81c-3.54-6-5.57-21.6-5.57-29.08,0-1.19.19-18.87.55-19.94A50.83,50.83,0,0,1,65,21.34Z"/><path class="cls-18" d="M65.27,21.83a50.62,50.62,0,0,1,50.57,50.58V93.93c0,3.47-.45,10.42-1.3,13.62a50.22,50.22,0,0,1-49.27,40.54h0a48.36,48.36,0,0,1-45.22-30.83c-3.41-5.8-5.36-21.74-5.36-28.93,0-1.28.21-18.43.59-19.58A50.06,50.06,0,0,1,65.27,21.83Z"/><path class="cls-19" d="M65.51,22.33a49.88,49.88,0,0,1,49.84,49.84V93.45c0,3.34-.44,10.39-1.26,13.47a49.46,49.46,0,0,1-48.58,40.19h0a47.57,47.57,0,0,1-44.69-30.86c-3.27-5.57-5.15-21.86-5.15-28.78,0-1.36.22-18,.63-19.2A49.29,49.29,0,0,1,65.51,22.33Z"/><path class="cls-20" d="M65.75,22.82a49.14,49.14,0,0,1,49.1,49.1V93c0,3.21-.42,10.37-1.2,13.32a48.72,48.72,0,0,1-47.9,39.84h0A46.76,46.76,0,0,1,21.6,115.25c-3.15-5.35-5-22-5-28.63,0-1.45.23-17.54.67-18.84A48.53,48.53,0,0,1,65.75,22.82Z"/><path class="cls-21" d="M66,23.32a48.41,48.41,0,0,1,48.37,48.36V92.49c0,3.07-.4,10.34-1.16,13.18A48,48,0,0,1,66,145.15h0a46,46,0,0,1-43.62-30.9c-3-5.13-4.74-22.12-4.74-28.49,0-1.53.25-17.09.71-18.46A47.76,47.76,0,0,1,66,23.32Z"/><path class="cls-22" d="M66.23,23.81a47.66,47.66,0,0,1,47.63,47.63V92c0,2.94-.38,10.32-1.1,13a47.21,47.21,0,0,1-46.53,39.13h0a45.24,45.24,0,0,1-43.09-30.92c-2.88-4.91-4.53-22.25-4.53-28.34,0-1.62.26-16.65.75-18.1A47,47,0,0,1,66.23,23.81Z"/><path class="cls-23" d="M66.48,24.31A46.93,46.93,0,0,1,113.37,71.2V91.53c0,2.81-.37,10.29-1.06,12.88a46.46,46.46,0,0,1-45.83,38.78h0a44.48,44.48,0,0,1-42.56-30.94c-2.76-4.69-4.34-22.38-4.34-28.2,0-1.7.28-16.19.8-17.73A46.23,46.23,0,0,1,66.48,24.31Z"/><path class="cls-24" d="M66.72,24.8A46.19,46.19,0,0,1,112.87,71V91.05c0,2.67-.35,10.27-1,12.73a45.72,45.72,0,0,1-45.15,38.43h0a43.74,43.74,0,0,1-42-31c-2.62-4.46-4.13-22.51-4.13-28,0-1.79.3-15.75.83-17.36A45.5,45.5,0,0,1,66.72,24.8Z"/><path class="cls-25" d="M67,25.3a45.45,45.45,0,0,1,45.42,45.41V90.57c0,2.54-.34,10.24-1,12.58A45,45,0,0,1,67,141.23h0a43,43,0,0,1-41.5-31C23,106,21.54,87.61,21.54,82.35c0-1.88.31-15.31.87-17A44.74,44.74,0,0,1,67,25.3Z"/><path class="cls-26" d="M67.2,25.79a44.71,44.71,0,0,1,44.68,44.68V90.09c0,2.4-.31,10.22-.9,12.43A44.23,44.23,0,0,1,67.2,140.25h0a42.29,42.29,0,0,1-41-31c-2.36-4-3.72-22.76-3.72-27.75,0-2,.32-14.86.91-16.62A44,44,0,0,1,67.2,25.79Z"/><path class="cls-27" d="M67.44,26.29a44,44,0,0,1,44,43.94V89.61c0,2.27-.3,10.19-.86,12.29a43.49,43.49,0,0,1-43.09,37.37h0c-19.54,0-36-13.31-40.43-31-2.23-3.79-3.51-22.9-3.51-27.6,0-2,.34-14.42.95-16.26A43.24,43.24,0,0,1,67.44,26.29Z"/><path class="cls-28" d="M67.69,26.78A43.23,43.23,0,0,1,110.89,70V89.13c0,2.14-.28,10.17-.8,12.14a42.76,42.76,0,0,1-42.4,37h0c-19.42,0-35.73-13.36-39.91-31-2.1-3.57-3.3-23-3.3-27.46,0-2.13.35-14,1-15.88A42.5,42.5,0,0,1,67.69,26.78Z"/><path class="cls-29" d="M67.93,27.28A42.5,42.5,0,0,1,110.4,69.75v18.9c0,2-.27,10.14-.76,12a42,42,0,0,1-41.71,36.68h0c-19.28,0-35.45-13.41-39.38-31.08-2-3.35-3.09-23.16-3.09-27.31,0-2.22.36-13.53,1-15.52A41.76,41.76,0,0,1,67.93,27.28Z"/><path class="cls-30" d="M68.17,27.77A41.76,41.76,0,0,1,109.9,69.5V88.17c0,1.87-.24,10.12-.7,11.84a41.31,41.31,0,0,1-41,36.33h0c-19.15,0-35.18-13.45-38.84-31.1-1.84-3.12-2.89-23.29-2.89-27.16,0-2.3.37-13.09,1.07-15.16A41,41,0,0,1,68.17,27.77Z"/><path class="cls-31" d="M68.41,28.27a41,41,0,0,1,41,41V87.69c0,1.73-.23,10.09-.66,11.69a40.57,40.57,0,0,1-40.34,36h0c-19,0-34.91-13.5-38.31-31.12-1.7-2.9-2.68-23.42-2.68-27,0-2.38.39-12.64,1.11-14.78A40.28,40.28,0,0,1,68.41,28.27Z"/><path class="cls-32" d="M68.65,28.76A40.28,40.28,0,0,1,108.91,69V87.21c0,1.6-.21,10.07-.6,11.55a39.85,39.85,0,0,1-39.66,35.62h0a38.28,38.28,0,0,1-37.78-31.15c-1.57-2.67-2.47-23.54-2.47-26.86,0-2.47.4-12.2,1.15-14.42A39.56,39.56,0,0,1,68.65,28.76Z"/><path class="cls-33" d="M68.9,29.26a39.53,39.53,0,0,1,39.51,39.52v18c0,1.47-.19,10-.55,11.4a39.12,39.12,0,0,1-39,35.27h0a37.63,37.63,0,0,1-37.25-31.17c-1.45-2.45-2.27-23.67-2.27-26.72,0-2.55.41-11.75,1.18-14A38.85,38.85,0,0,1,68.9,29.26Z"/><path class="cls-34" d="M69.14,29.75a38.8,38.8,0,0,1,38.78,38.79V86.25c0,1.33-.18,10-.5,11.25a38.41,38.41,0,0,1-38.28,34.92h0a37,37,0,0,1-36.72-31.19c-1.31-2.23-2.06-23.8-2.06-26.57S30.79,63.35,31.58,61A38.14,38.14,0,0,1,69.14,29.75Z"/><path class="cls-35" d="M69.38,30.25a38.05,38.05,0,0,1,38,38V85.77c0,1.2-.15,10-.45,11.1a37.69,37.69,0,0,1-37.59,34.57h0a36.4,36.4,0,0,1-36.19-31.21c-1.18-2-1.85-23.93-1.85-26.43,0-2.72.44-10.85,1.26-13.3A37.42,37.42,0,0,1,69.38,30.25Z"/><path class="cls-36" d="M69.62,30.74a37.32,37.32,0,0,1,37.31,37.31V85.29c0,1.07-.14,10-.4,10.95a37,37,0,0,1-36.91,34.22h0A35.81,35.81,0,0,1,34,99.23c-1-1.78-1.65-24.07-1.65-26.28,0-2.81.46-10.41,1.31-12.94A36.72,36.72,0,0,1,69.62,30.74Z"/><path class="cls-37" d="M69.86,31.24a36.58,36.58,0,0,1,36.57,36.57v17c0,.93-.12,9.94-.35,10.8a36.26,36.26,0,0,1-36.22,33.87h0A35.2,35.2,0,0,1,34.74,98.23c-.92-1.56-1.45-24.2-1.45-26.13,0-2.9.48-10,1.35-12.58A36,36,0,0,1,69.86,31.24Z"/><path class="cls-38" d="M70.11,31.73a35.85,35.85,0,0,1,35.83,35.84V84.33c0,.8-.11,9.92-.3,10.66A35.56,35.56,0,0,1,70.11,128.5h0a34.64,34.64,0,0,1-34.6-31.27c-.79-1.34-1.24-24.33-1.24-26,0-3,.49-9.52,1.39-12.2A35.33,35.33,0,0,1,70.11,31.73Z"/><path class="cls-39" d="M70.35,32.23a35.1,35.1,0,0,1,35.09,35.1V83.85c0,.66-.08,9.89-.25,10.51a34.85,34.85,0,0,1-34.84,33.16h0a34.08,34.08,0,0,1-34.07-31.3c-.65-1.11-1-24.45-1-25.83,0-3.07.5-9.08,1.43-11.84A34.64,34.64,0,0,1,70.35,32.23Z"/><path class="cls-40" d="M70.59,32.73A34.36,34.36,0,0,1,105,67.08V83.37c0,.53-.07,9.87-.2,10.36a34.17,34.17,0,0,1-34.16,32.81h0A33.51,33.51,0,0,1,37.06,95.22c-.53-.89-.83-24.58-.83-25.69A45.44,45.44,0,0,1,37.7,58.07,34,34,0,0,1,70.59,32.73Z"/><path class="cls-41" d="M70.83,33.22a33.62,33.62,0,0,1,33.62,33.62v16c0,.4,0,9.84-.15,10.21a33.46,33.46,0,0,1-33.47,32.46h0a33,33,0,0,1-33-31.34c-.39-.67-.62-24.71-.62-25.54a41.77,41.77,0,0,1,1.5-11.1A33.32,33.32,0,0,1,70.83,33.22Z"/><path class="cls-42" d="M71.07,33.72A32.89,32.89,0,0,1,104,66.6V82.41c0,.26,0,9.82-.1,10.06a32.78,32.78,0,0,1-32.79,32.12h0A32.45,32.45,0,0,1,38.6,93.22c-.26-.45-.41-24.84-.41-25.4A37.85,37.85,0,0,1,39.73,57.1,32.68,32.68,0,0,1,71.07,33.72Z"/><path class="cls-43" d="M71.32,34.21a32.14,32.14,0,0,1,32.14,32.15V81.93c0,.13,0,9.79,0,9.92a32.09,32.09,0,0,1-32.09,31.76h0A31.92,31.92,0,0,1,39.38,92.22c-.14-.22-.21-25-.21-25.25a34.69,34.69,0,0,1,1.58-10.36A32,32,0,0,1,71.32,34.21Z"/><rect class="cls-44" x="40.15" y="34.71" width="62.82" height="87.92" rx="31.41"/></g><path class="cls-45" d="M83.17,0A41.89,41.89,0,0,0,41.28,41.89V75.36a41.89,41.89,0,0,0,83.78,0V41.89A41.89,41.89,0,0,0,83.17,0Z"/><path class="cls-46" d="M83.17,115.9h0A41.89,41.89,0,0,1,41.28,74v1.34a41.9,41.9,0,0,0,41.89,41.89h0a41.9,41.9,0,0,0,41.89-41.89V74A41.89,41.89,0,0,1,83.17,115.9Z"/><path class="cls-47" d="M83.17,0h0A41.89,41.89,0,0,0,41.28,41.89v1.34A41.9,41.9,0,0,1,83.17,1.34h0a41.9,41.9,0,0,1,41.89,41.89V41.89A41.89,41.89,0,0,0,83.17,0Z"/><rect class="cls-48" x="47.68" y="62.03" width="70.65" height="15.09"/><path class="cls-49" d="M57.2,67.88,57,66.36h1l.18,1.52v8.29h-1Z"/><path class="cls-49" d="M65.52,72.73a2.63,2.63,0,0,1-2.21,1,5.23,5.23,0,0,1-1.07-.12l.1-.79a3.74,3.74,0,0,0,.89.1,1.79,1.79,0,0,0,1.59-.75,4,4,0,0,0,.51-2.23c0-1.88-.62-2.83-1.85-2.83a1.65,1.65,0,0,0-1.14.4,2.07,2.07,0,0,0-.58,1.06l-.92,5h-1l1-5-1-2.16h1l.65,1.56a2.27,2.27,0,0,1,.83-1.23,2.19,2.19,0,0,1,1.3-.41,2.44,2.44,0,0,1,1.95.85,4.22,4.22,0,0,1,.73,2.77A4.48,4.48,0,0,1,65.52,72.73Z"/><path class="cls-49" d="M68,67.88l-.17-1.52h1L69,67.88v5.69H68Z"/><path class="cls-49" d="M70.89,67.88l-.17-1.52h1l.19,1.52v1.94l0,.82-1,.2Z"/><path class="cls-49" d="M78.37,66.36v.84l-2.51,6.37h-1l2.51-6.42h-4v-2.9h.93v2.11Z"/><path class="cls-49" d="M82.35,70.06l.14-.87h.86v4.38h-1Zm4.46-1.32a1.73,1.73,0,0,0-.36-1.22,1.43,1.43,0,0,0-1-.37h-3v-.79h3.27c1.45,0,2.18.81,2.18,2.42v4.79h-1Z"/><path class="cls-49" d="M90.19,73.7l-.79-6.55-.09-.79h3.54a2.3,2.3,0,0,1,1.79.71A2.91,2.91,0,0,1,95.33,69v.4C95.43,72.11,93.71,73.55,90.19,73.7Zm3.33-1.82a2.91,2.91,0,0,0,.82-2.5v-.32a2.19,2.19,0,0,0-.41-1.37,1.37,1.37,0,0,0-1.15-.54H90.4l.67,5.63A4.24,4.24,0,0,0,93.52,71.88Z"/><path class="cls-49" d="M97,67.88l-.17-1.52h1L98,67.88v2.76l-1,.2Z"/><path class="cls-49" d="M99.55,72.78h2.26V68.45a1.45,1.45,0,0,0-.25-.94,1.18,1.18,0,0,0-.76-.38L99.93,67l.14-.78,1.13.17a1.86,1.86,0,0,1,1.2.64,2.2,2.2,0,0,1,.41,1.4v5.14H99.55Z"/><path class="cls-49" d="M104.29,72.78H106a2,2,0,0,0,1.59-.61,2.67,2.67,0,0,0,.53-1.79v-.82a2.7,2.7,0,0,0-.53-1.8,2,2,0,0,0-1.59-.61h-1.72v-.79h1.92a2.8,2.8,0,0,1,2.16.83,3.45,3.45,0,0,1,.76,2.41v.74a3.41,3.41,0,0,1-.76,2.4,2.77,2.77,0,0,1-2.16.83h-1.92Z"/><path class="cls-50" d="M97.29,17.47H95V14.54a1.57,1.57,0,1,0-3.14,0v2.93H77.27V14.54a1.58,1.58,0,0,0-3.16,0v2.93H71.5a3.15,3.15,0,0,0-3.14,3.14V46.4a3.15,3.15,0,0,0,3.14,3.14H90.6L92.12,48l6.79-6.79,1.52-1.51V20.61A3.15,3.15,0,0,0,97.29,17.47Zm-5.46.11H95v3a1.57,1.57,0,1,1-3.14,0Zm-17.72,0h3.16v3a1.58,1.58,0,1,1-3.16,0Zm24.8,22.14H93.08c-2.16,0-2.54,1.39-2.54,3.07V48h-19a1.62,1.62,0,0,1-1.63-1.62v-23h29Z"/><rect class="cls-50" x="72.25" y="26.67" width="5.19" height="5.19"/><rect class="cls-50" x="78.64" y="26.67" width="5.19" height="5.19"/><rect class="cls-50" x="85.02" y="26.67" width="5.19" height="5.19"/><rect class="cls-50" x="91.4" y="26.67" width="5.19" height="5.19"/><rect class="cls-50" x="72.25" y="33.05" width="5.19" height="5.19"/><rect class="cls-50" x="78.64" y="33.05" width="5.19" height="5.19"/><rect class="cls-50" x="85.02" y="33.05" width="5.19" height="5.19"/><rect class="cls-50" x="91.4" y="33.05" width="5.19" height="5.19"/><rect class="cls-50" x="72.25" y="39.43" width="5.19" height="5.19"/><rect class="cls-50" x="78.64" y="39.43" width="5.19" height="5.19"/></g></g></g></svg>