<svg xmlns="http://www.w3.org/2000/svg" xmlns:xlink="http://www.w3.org/1999/xlink" viewBox="0 0 55.83 53.1"><defs><style>.cls-1{isolation:isolate;}.cls-2,.cls-59,.cls-61,.cls-62{mix-blend-mode:multiply;}.cls-3,.cls-64,.cls-65{fill:#fff;}.cls-3{opacity:0;}.cls-4{fill:#fdfdfd;opacity:0.02;}.cls-5{fill:#fbfbfb;opacity:0.03;}.cls-6{fill:#f9f8f9;opacity:0.05;}.cls-7{fill:#f6f6f6;opacity:0.06;}.cls-8{fill:#f4f4f4;opacity:0.08;}.cls-9{fill:#f2f1f2;opacity:0.09;}.cls-10{fill:#f0eff0;opacity:0.11;}.cls-11{fill:#ededed;opacity:0.13;}.cls-12{fill:#ebeaeb;opacity:0.14;}.cls-13{fill:#e9e8e9;opacity:0.16;}.cls-14{fill:#e7e6e6;opacity:0.17;}.cls-15{fill:#e5e3e4;opacity:0.19;}.cls-16{fill:#e2e1e2;opacity:0.2;}.cls-17{fill:#e0dfe0;opacity:0.22;}.cls-18{fill:#dedddd;opacity:0.24;}.cls-19{fill:#dcdadb;opacity:0.25;}.cls-20{fill:#dad8d9;opacity:0.27;}.cls-21{fill:#d8d6d7;opacity:0.28;}.cls-22{fill:#d5d4d4;opacity:0.3;}.cls-23{fill:#d3d2d2;opacity:0.31;}.cls-24{fill:#d1d0d0;opacity:0.33;}.cls-25{fill:#cfcdce;opacity:0.35;}.cls-26{fill:#cdcbcc;opacity:0.36;}.cls-27{fill:#cbc9ca;opacity:0.38;}.cls-28{fill:#c9c7c8;opacity:0.39;}.cls-29{fill:#c7c5c6;opacity:0.41;}.cls-30{fill:#c5c3c4;opacity:0.42;}.cls-31{fill:#c3c1c2;opacity:0.44;}.cls-32{fill:#c1bfbf;opacity:0.45;}.cls-33{fill:#bfbdbd;opacity:0.47;}.cls-34{fill:#bdbbbb;opacity:0.49;}.cls-35{fill:#bbb9b9;opacity:0.5;}.cls-36{fill:#b9b7b7;opacity:0.52;}.cls-37{fill:#b6b5b5;opacity:0.53;}.cls-38{fill:#b4b3b3;opacity:0.55;}.cls-39{fill:#b2b1b1;opacity:0.56;}.cls-40{fill:#b0afaf;opacity:0.58;}.cls-41{fill:#aeadad;opacity:0.6;}.cls-42{fill:#acabab;opacity:0.61;}.cls-43{fill:#aaa9a9;opacity:0.63;}.cls-44{fill:#a8a7a7;opacity:0.64;}.cls-45{fill:#a6a5a5;opacity:0.66;}.cls-46{fill:#a4a3a3;opacity:0.67;}.cls-47{fill:#a2a1a1;opacity:0.69;}.cls-48{fill:#a09f9f;opacity:0.71;}.cls-49{fill:#9e9d9d;opacity:0.72;}.cls-50{fill:#9c9b9c;opacity:0.74;}.cls-51{fill:#9a999a;opacity:0.75;}.cls-52{fill:#989798;opacity:0.77;}.cls-53{fill:#969696;opacity:0.78;}.cls-54{fill:#949494;opacity:0.8;}.cls-55{fill:url(#radial-gradient);}.cls-56{fill:url(#radial-gradient-2);}.cls-57{fill:url(#radial-gradient-3);}.cls-58{fill:url(#radial-gradient-4);}.cls-59{fill:url(#radial-gradient-5);}.cls-60{mix-blend-mode:screen;fill:url(#radial-gradient-6);}.cls-61{opacity:0.76;}.cls-62{opacity:0.79;fill:url(#Degradado_sin_nombre_440);}.cls-63,.cls-65{fill-rule:evenodd;}.cls-63{fill:url(#Degradado_sin_nombre_440-2);}</style><radialGradient id="radial-gradient" cx="58.84" cy="3.33" r="58.12" gradientUnits="userSpaceOnUse"><stop offset="0" stop-color="#fff"/><stop offset="0.26" stop-color="#fcfcfc"/><stop offset="0.47" stop-color="#f2f2f2"/><stop offset="0.67" stop-color="#e0e0e1"/><stop offset="0.85" stop-color="#c9c9c9"/><stop offset="1" stop-color="#afafb0"/></radialGradient><radialGradient id="radial-gradient-2" cx="49.06" cy="9.76" r="55.4" xlink:href="#radial-gradient"/><radialGradient id="radial-gradient-3" cx="19.11" cy="36.13" r="47.33" gradientUnits="userSpaceOnUse"><stop offset="0" stop-color="#f4e600"/><stop offset="0.24" stop-color="#bdce0e"/><stop offset="0.77" stop-color="#499b2a"/><stop offset="1" stop-color="#1b8736"/></radialGradient><radialGradient id="radial-gradient-4" cx="46.92" cy="10.04" r="48.5" gradientUnits="userSpaceOnUse"><stop offset="0" stop-color="#f4e600"/><stop offset="0.1" stop-color="#ede302"/><stop offset="0.24" stop-color="#d8da07"/><stop offset="0.42" stop-color="#b6cb0f"/><stop offset="0.62" stop-color="#87b61b"/><stop offset="0.84" stop-color="#4c9d2a"/><stop offset="1" stop-color="#1b8736"/></radialGradient><radialGradient id="radial-gradient-5" cx="30.64" cy="25.59" r="17.79" gradientUnits="userSpaceOnUse"><stop offset="0.61" stop-color="#fff"/><stop offset="0.65" stop-color="#fcfefc"/><stop offset="0.69" stop-color="#f3f9f1"/><stop offset="0.72" stop-color="#e5f1e0"/><stop offset="0.76" stop-color="#d0e7c7"/><stop offset="0.79" stop-color="#b5d9a8"/><stop offset="0.82" stop-color="#95c881"/><stop offset="0.85" stop-color="#6fb454"/><stop offset="0.87" stop-color="#53a633"/></radialGradient><radialGradient id="radial-gradient-6" cx="33.62" cy="21.81" r="17.79" gradientUnits="userSpaceOnUse"><stop offset="0.61" stop-color="#010101"/><stop offset="0.65" stop-color="#040402"/><stop offset="0.69" stop-color="#0d0f03"/><stop offset="0.72" stop-color="#1d2006"/><stop offset="0.76" stop-color="#33390a"/><stop offset="0.79" stop-color="#4f580f"/><stop offset="0.82" stop-color="#727f15"/><stop offset="0.85" stop-color="#9aac1c"/><stop offset="0.87" stop-color="#b9cf22"/></radialGradient><linearGradient id="Degradado_sin_nombre_440" x1="23.4" y1="23.15" x2="40.67" y2="23.15" gradientUnits="userSpaceOnUse"><stop offset="0" stop-color="#75b72b"/><stop offset="0.55" stop-color="#95c218"/><stop offset="0.99" stop-color="#b2cb07"/></linearGradient><linearGradient id="Degradado_sin_nombre_440-2" x1="29.44" y1="23.14" x2="36.27" y2="23.14" xlink:href="#Degradado_sin_nombre_440"/></defs><g class="cls-1"><g id="Layer_1" data-name="Layer 1"><g class="cls-2"><path class="cls-3" d="M54.66,25.48c0,14.36-15.83,27.62-30.18,27.62S0,43.54,0,29.18,15.69,1.93,30.05,1.93,54.66,11.13,54.66,25.48Z"/><path class="cls-4" d="M54.6,25.41c0,14.3-15.67,27.52-30,27.52S.23,43.41.23,29.11,15.81,2,30.1,2,54.6,11.11,54.6,25.41Z"/><path class="cls-5" d="M54.54,25.34c0,14.23-15.52,27.41-29.76,27.41S.47,43.27.47,29,15.92,2,30.16,2,54.54,11.1,54.54,25.34Z"/><path class="cls-6" d="M54.49,25.26c0,14.18-15.38,27.31-29.56,27.31S.7,43.14.7,29,16,2.08,30.21,2.08,54.49,11.08,54.49,25.26Z"/><path class="cls-7" d="M54.43,25.19c0,14.12-15.23,27.2-29.35,27.2S.94,43,.94,28.89,16.14,2.13,30.26,2.13,54.43,11.07,54.43,25.19Z"/><path class="cls-8" d="M54.37,25.12c0,14.06-15.08,27.09-29.14,27.09S1.17,42.88,1.17,28.81,16.25,2.18,30.31,2.18,54.37,11.06,54.37,25.12Z"/><path class="cls-9" d="M54.31,25.05c0,14-14.92,27-28.93,27s-24-9.29-24-23.29,15-26.51,29-26.51S54.31,11,54.31,25.05Z"/><path class="cls-10" d="M54.25,25c0,14-14.77,26.88-28.71,26.88S1.64,42.61,1.64,28.67,16.48,2.28,30.42,2.28,54.25,11,54.25,25Z"/><path class="cls-11" d="M54.19,24.9c0,13.88-14.62,26.77-28.5,26.77S1.88,42.48,1.88,28.59,16.59,2.33,30.47,2.33,54.19,11,54.19,24.9Z"/><path class="cls-12" d="M54.13,24.83c0,13.82-14.47,26.66-28.29,26.66s-23.73-9.15-23.73-23S16.7,2.37,30.53,2.37,54.13,11,54.13,24.83Z"/><path class="cls-13" d="M54.07,24.76c0,13.76-14.31,26.55-28.08,26.55S2.35,42.21,2.35,28.44s14.46-26,28.23-26S54.07,11,54.07,24.76Z"/><path class="cls-14" d="M54,24.68c0,13.71-14.17,26.45-27.88,26.45S2.58,42.08,2.58,28.37,16.93,2.47,30.63,2.47,54,11,54,24.68Z"/><path class="cls-15" d="M54,24.61C54,38.26,39.94,51,26.29,51S2.82,41.94,2.82,28.3,17,2.52,30.69,2.52,54,11,54,24.61Z"/><path class="cls-16" d="M53.9,24.54C53.9,38.13,40,50.77,26.44,50.77s-23.39-9-23.39-22.55S17.15,2.57,30.74,2.57,53.9,11,53.9,24.54Z"/><path class="cls-17" d="M53.84,24.46c0,13.53-13.72,26.13-27.25,26.13S3.29,41.68,3.29,28.15s14-25.53,27.5-25.53S53.84,10.94,53.84,24.46Z"/><path class="cls-18" d="M53.78,24.39c0,13.47-13.56,26-27,26S3.52,41.55,3.52,28.07,17.37,2.67,30.84,2.67,53.78,10.92,53.78,24.39Z"/><path class="cls-19" d="M53.72,24.32c0,13.41-13.41,25.91-26.82,25.91S3.76,41.41,3.76,28,17.49,2.72,30.9,2.72,53.72,10.91,53.72,24.32Z"/><path class="cls-20" d="M53.66,24.25c0,13.35-13.26,25.8-26.61,25.8S4,41.28,4,27.93,17.6,2.77,31,2.77,53.66,10.89,53.66,24.25Z"/><path class="cls-21" d="M53.6,24.17c0,13.3-13.11,25.7-26.4,25.7s-23-8.72-23-22,13.48-25,26.77-25S53.6,10.88,53.6,24.17Z"/><path class="cls-22" d="M53.55,24.1c0,13.24-13,25.6-26.2,25.6S4.46,41,4.46,27.78,17.82,2.87,31.06,2.87,53.55,10.87,53.55,24.1Z"/><path class="cls-23" d="M53.49,24c0,13.17-12.81,25.49-26,25.49S4.7,40.88,4.7,27.7,17.93,2.92,31.11,2.92,53.49,10.85,53.49,24Z"/><path class="cls-24" d="M53.43,24c0,13.11-12.66,25.38-25.78,25.38S4.93,40.75,4.93,27.63,18.05,3,31.16,3,53.43,10.84,53.43,24Z"/><path class="cls-25" d="M53.37,23.88c0,13.06-12.51,25.28-25.57,25.28S5.16,40.61,5.16,27.56,18.16,3,31.22,3,53.37,10.83,53.37,23.88Z"/><path class="cls-26" d="M53.31,23.81C53.31,36.81,41,49,28,49S5.4,40.48,5.4,27.48,18.27,3.07,31.27,3.07,53.31,10.81,53.31,23.81Z"/><path class="cls-27" d="M53.25,23.74c0,12.94-12.2,25.06-25.14,25.06S5.63,40.35,5.63,27.41,18.38,3.11,31.32,3.11,53.25,10.8,53.25,23.74Z"/><path class="cls-28" d="M53.19,23.67c0,12.88-12,24.95-24.93,24.95S5.87,40.22,5.87,27.33,18.49,3.16,31.37,3.16,53.19,10.79,53.19,23.67Z"/><path class="cls-29" d="M53.13,23.59c0,12.82-11.9,24.85-24.72,24.85S6.1,40.08,6.1,27.26s12.51-24,25.33-24S53.13,10.77,53.13,23.59Z"/><path class="cls-30" d="M53.08,23.52c0,12.76-11.76,24.74-24.52,24.74S6.34,40,6.34,27.19,18.72,3.26,31.48,3.26,53.08,10.76,53.08,23.52Z"/><path class="cls-31" d="M53,23.45c0,12.7-11.61,24.63-24.31,24.63s-22.14-8.26-22.14-21,12.26-23.8,25-23.8S53,10.74,53,23.45Z"/><path class="cls-32" d="M53,23.38C53,36,41.51,47.9,28.86,47.9s-22-8.22-22-20.86S18.94,3.36,31.59,3.36,53,10.73,53,23.38Z"/><path class="cls-33" d="M52.9,23.3C52.9,35.89,41.6,47.72,29,47.72S7,39.55,7,27s12-23.55,24.6-23.55S52.9,10.72,52.9,23.3Z"/><path class="cls-34" d="M52.84,23.23c0,12.53-11.15,24.31-23.67,24.31S7.28,39.42,7.28,26.89,19.17,3.46,31.69,3.46,52.84,10.7,52.84,23.23Z"/><path class="cls-35" d="M52.78,23.16c0,12.46-11,24.2-23.46,24.2S7.51,39.28,7.51,26.82,19.28,3.51,31.74,3.51,52.78,10.69,52.78,23.16Z"/><path class="cls-36" d="M52.72,23.08c0,12.41-10.84,24.1-23.25,24.1s-21.72-8-21.72-20.44S19.39,3.56,31.8,3.56,52.72,10.68,52.72,23.08Z"/><path class="cls-37" d="M52.66,23c0,12.35-10.69,24-23,24S8,39,8,26.67,19.5,3.61,31.85,3.61,52.66,10.66,52.66,23Z"/><path class="cls-38" d="M52.61,22.94c0,12.29-10.55,23.88-22.84,23.88S8.22,38.89,8.22,26.59,19.61,3.66,31.9,3.66,52.61,10.65,52.61,22.94Z"/><path class="cls-39" d="M52.55,22.87c0,12.23-10.4,23.78-22.63,23.78S8.45,38.75,8.45,26.52,19.73,3.71,32,3.71,52.55,10.64,52.55,22.87Z"/><path class="cls-40" d="M52.49,22.79c0,12.18-10.25,23.68-22.42,23.68s-21.38-7.85-21.38-20S19.84,3.76,32,3.76,52.49,10.62,52.49,22.79Z"/><path class="cls-41" d="M52.43,22.72c0,12.11-10.09,23.57-22.21,23.57s-21.3-7.8-21.3-19.92S20,3.81,32.06,3.81,52.43,10.61,52.43,22.72Z"/><path class="cls-42" d="M52.37,22.65c0,12.05-9.94,23.46-22,23.46S9.16,38.35,9.16,26.3s10.9-22.45,23-22.45S52.37,10.6,52.37,22.65Z"/><path class="cls-43" d="M52.31,22.58c0,12-9.79,23.35-21.78,23.35S9.39,38.22,9.39,26.22,20.17,3.9,32.17,3.9,52.31,10.58,52.31,22.58Z"/><path class="cls-44" d="M52.25,22.5c0,11.94-9.64,23.25-21.57,23.25S9.62,38.09,9.62,26.15,20.29,4,32.22,4,52.25,10.57,52.25,22.5Z"/><path class="cls-45" d="M52.19,22.43c0,11.88-9.48,23.14-21.36,23.14s-21-7.62-21-19.49S20.4,4,32.27,4,52.19,10.55,52.19,22.43Z"/><path class="cls-46" d="M52.14,22.36c0,11.82-9.34,23-21.16,23S10.09,37.82,10.09,26,20.51,4.05,32.33,4.05,52.14,10.54,52.14,22.36Z"/><path class="cls-47" d="M52.08,22.29c0,11.75-9.19,22.92-20.95,22.92s-20.8-7.52-20.8-19.28S20.62,4.1,32.38,4.1,52.08,10.53,52.08,22.29Z"/><path class="cls-48" d="M52,22.21C52,33.91,43,45,31.28,45S10.56,37.55,10.56,25.85,20.73,4.15,32.43,4.15,52,10.51,52,22.21Z"/><path class="cls-49" d="M52,22.14c0,11.64-8.89,22.71-20.53,22.71S10.8,37.42,10.8,25.78,20.85,4.2,32.49,4.2,52,10.5,52,22.14Z"/><path class="cls-50" d="M51.9,22.07c0,11.58-8.73,22.6-20.31,22.6S11,37.29,11,25.71A21.86,21.86,0,0,1,32.54,4.25C44.12,4.25,51.9,10.49,51.9,22.07Z"/><path class="cls-51" d="M51.84,22c0,11.52-8.58,22.49-20.1,22.49S11.27,37.16,11.27,25.63A21.66,21.66,0,0,1,32.59,4.3C44.12,4.3,51.84,10.47,51.84,22Z"/><path class="cls-52" d="M51.78,21.92c0,11.47-8.43,22.39-19.89,22.39S11.5,37,11.5,25.56A21.48,21.48,0,0,1,32.65,4.35C44.11,4.35,51.78,10.46,51.78,21.92Z"/><path class="cls-53" d="M51.72,21.85c0,11.4-8.28,22.28-19.68,22.28s-20.3-7.24-20.3-18.65A21.29,21.29,0,0,1,32.7,4.4C44.1,4.4,51.72,10.45,51.72,21.85Z"/><path class="cls-54" d="M51.67,21.78C51.67,33.12,43.54,44,32.19,44S12,36.76,12,25.41a21.11,21.11,0,0,1,20.78-21C44.1,4.45,51.67,10.43,51.67,21.78Z"/></g><path class="cls-55" d="M55.83,24a24,24,0,1,1-24-24A24,24,0,0,1,55.83,24Z"/><path class="cls-56" d="M54.71,24A22.85,22.85,0,1,1,31.86,1.12,22.85,22.85,0,0,1,54.71,24Z"/><path class="cls-57" d="M46.06,24a14.2,14.2,0,1,1-14.2-14.2A14.19,14.19,0,0,1,46.06,24Z"/><path class="cls-58" d="M44.94,24A13.08,13.08,0,1,1,31.86,10.89,13.08,13.08,0,0,1,44.94,24Z"/><path class="cls-59" d="M44.94,24A13.08,13.08,0,1,1,31.86,10.89,13.08,13.08,0,0,1,44.94,24Z"/><path class="cls-60" d="M44.94,24A13.08,13.08,0,1,1,31.86,10.89,13.08,13.08,0,0,1,44.94,24Z"/><g class="cls-61"><path class="cls-62" d="M23.4,29.89l1.84-4.08A7.93,7.93,0,1,1,31.43,31a7.89,7.89,0,0,1-3.57-1.58Zm4.93-2,.25.21a6.47,6.47,0,1,0-2.21-6,6.55,6.55,0,0,0,.38,3.47l.12.3-1,2.27Z"/><path class="cls-63" d="M35.54,24.76a1.32,1.32,0,0,0-1.06-.43c-.3.07-.56.49-.78.69a.27.27,0,0,1-.36,0,5,5,0,0,1-2.12-2.55.31.31,0,0,1,.1-.41,1.62,1.62,0,0,0,.57-.65,1.66,1.66,0,0,0-.05-.91,2.18,2.18,0,0,0-.48-1.07.88.88,0,0,0-1,0,2,2,0,0,0-.92,1.43,1.61,1.61,0,0,0,0,.49,4.19,4.19,0,0,0,.28,1.16,8.58,8.58,0,0,0,.37.82,7.58,7.58,0,0,0,1.77,2.31,6.29,6.29,0,0,0,1.21.85,3,3,0,0,0,1.49.5,1.86,1.86,0,0,0,1.55-.81.86.86,0,0,0,.15-.52C36.25,25.29,35.8,25,35.54,24.76Z"/></g><path class="cls-64" d="M23.06,29.55l1.84-4.08a7.93,7.93,0,1,1,6.18,5.21,7.78,7.78,0,0,1-3.56-1.57Zm4.93-2,.24.21a6.29,6.29,0,0,0,3.1,1.44A6.48,6.48,0,1,0,26,21.74a6.53,6.53,0,0,0,.38,3.47l.12.3-1,2.28Z"/><path class="cls-65" d="M35.19,24.42a1.29,1.29,0,0,0-1-.43c-.3.07-.56.48-.78.68a.29.29,0,0,1-.37,0,5.09,5.09,0,0,1-2.12-2.54.32.32,0,0,1,.11-.41,1.65,1.65,0,0,0,.57-.66,1.62,1.62,0,0,0-.06-.9A2,2,0,0,0,31,19.11a.88.88,0,0,0-1,0,2,2,0,0,0-.92,1.42,2.79,2.79,0,0,0,0,.5,4.13,4.13,0,0,0,.29,1.15c.11.28.23.56.36.82a7.49,7.49,0,0,0,1.78,2.32,6.71,6.71,0,0,0,1.21.84,2.91,2.91,0,0,0,1.48.5,1.87,1.87,0,0,0,1.56-.8,1,1,0,0,0,.15-.52C35.91,24.94,35.46,24.64,35.19,24.42Z"/></g></g></svg>